<svg xmlns="http://www.w3.org/2000/svg" xmlns:xlink="http://www.w3.org/1999/xlink" width="140" zoomAndPan="magnify" viewBox="0 0 104.88 44.999999" height="60" preserveAspectRatio="xMidYMid meet" version="1.0"><defs><g/><clipPath id="id1"><path d="M 4.496094 12.234375 L 32.214844 12.234375 L 32.214844 32.460938 L 4.496094 32.460938 Z M 4.496094 12.234375 " clip-rule="nonzero"/></clipPath></defs><g fill="#ffffff" fill-opacity="1"><g transform="translate(37.485667, 25.133101)"><g><path d="M 10.742188 -10.023438 L 2.011719 -10.023438 L 2.011719 -8.136719 L 10.742188 -8.136719 Z M 12.039062 -4.617188 L 12.039062 -6.515625 L 0.539062 -6.515625 L 0.539062 -4.617188 L 3.699219 -4.617188 C 3.042969 -3.421875 2.3125 -2.414062 2 -2.089844 C 1.585938 -1.636719 1.332031 -1.394531 0.929688 -1.28125 C 1.183594 -0.703125 1.535156 0.339844 1.648438 0.753906 C 2.414062 0.476562 3.421875 0.425781 9.445312 0 C 9.722656 0.476562 9.949219 0.929688 10.125 1.308594 L 11.925781 0.214844 C 11.28125 -0.96875 10.113281 -2.730469 9.082031 -4.113281 L 7.382812 -3.234375 C 7.699219 -2.78125 8.023438 -2.277344 8.363281 -1.773438 L 4.089844 -1.558594 C 4.855469 -2.453125 5.648438 -3.507812 6.3125 -4.617188 Z M 12.039062 -4.617188 "/></g></g></g><g fill="#ffffff" fill-opacity="1"><g transform="translate(50.061349, 25.133101)"><g><path d="M 4.402344 -2.566406 C 3.949219 -1.75 3.183594 -0.792969 2.492188 -0.203125 C 2.929688 0.0234375 3.660156 0.492188 4.023438 0.78125 C 4.679688 0.101562 5.546875 -1.03125 6.125 -2 Z M 5.507812 -4.753906 L 9.34375 -4.753906 L 9.34375 -4.136719 L 5.507812 -4.136719 Z M 9.34375 -6 L 5.507812 -6 L 5.507812 -6.605469 L 9.34375 -6.605469 Z M 11.230469 -2.792969 L 11.230469 -7.949219 L 8.039062 -7.949219 C 8.152344 -8.101562 8.277344 -8.265625 8.390625 -8.441406 L 6.730469 -8.628906 L 12.023438 -8.628906 L 12.023438 -10.277344 L 1.257812 -10.277344 L 1.257812 -6.566406 C 1.257812 -4.628906 1.183594 -1.847656 0.175781 0.0117188 C 0.628906 0.175781 1.433594 0.628906 1.785156 0.90625 C 2.878906 -1.132812 3.054688 -4.414062 3.054688 -6.566406 L 3.054688 -8.628906 L 6.152344 -8.628906 C 6.074219 -8.414062 5.976562 -8.1875 5.847656 -7.949219 L 3.722656 -7.949219 L 3.722656 -2.792969 L 6.566406 -2.792969 L 6.566406 -0.578125 C 6.566406 -0.441406 6.515625 -0.402344 6.339844 -0.402344 C 6.175781 -0.402344 5.570312 -0.402344 5.132812 -0.414062 C 5.332031 0.0390625 5.558594 0.703125 5.621094 1.195312 C 6.464844 1.195312 7.144531 1.183594 7.671875 0.929688 C 8.214844 0.691406 8.339844 0.25 8.339844 -0.527344 L 8.339844 -2.792969 Z M 8.679688 -1.835938 C 9.320312 -1.007812 10.238281 0.136719 10.640625 0.832031 L 12.214844 -0.0625 C 11.734375 -0.742188 10.765625 -1.835938 10.136719 -2.605469 Z M 8.679688 -1.835938 "/></g></g></g><g fill="#ffffff" fill-opacity="1"><g transform="translate(62.637031, 25.133101)"><g><path d="M 7.269531 -0.929688 L 7.269531 -3.09375 L 10.878906 -3.09375 L 10.878906 -4.855469 L 7.269531 -4.855469 L 7.269531 -6.78125 L 11.382812 -6.78125 L 11.382812 -8.566406 L 7.269531 -8.566406 L 7.269531 -10.753906 L 5.359375 -10.753906 L 5.359375 -8.566406 L 3.75 -8.566406 C 3.960938 -9.105469 4.152344 -9.648438 4.300781 -10.199219 L 2.402344 -10.628906 C 1.976562 -8.929688 1.167969 -7.207031 0.203125 -6.175781 C 0.667969 -5.925781 1.484375 -5.382812 1.847656 -5.070312 C 2.226562 -5.535156 2.589844 -6.125 2.941406 -6.78125 L 5.359375 -6.78125 L 5.359375 -4.855469 L 2.101562 -4.855469 L 2.101562 -3.09375 L 5.359375 -3.09375 L 5.359375 -0.929688 L 0.605469 -0.929688 L 0.605469 0.855469 L 12.050781 0.855469 L 12.050781 -0.929688 Z M 7.269531 -0.929688 "/></g></g></g><g fill="#ffffff" fill-opacity="1"><g transform="translate(75.212714, 25.133101)"><g><path d="M 5.648438 -3.949219 C 5.410156 -4.175781 4.527344 -5.007812 4.011719 -5.433594 C 4.578125 -6.25 5.054688 -7.132812 5.394531 -8.050781 L 4.441406 -8.742188 L 4.125 -8.679688 L 3.15625 -8.679688 L 4.164062 -9.257812 C 3.949219 -9.722656 3.496094 -10.378906 3.070312 -10.855469 L 1.621094 -10.101562 C 1.949219 -9.683594 2.300781 -9.121094 2.515625 -8.679688 L 0.503906 -8.679688 L 0.503906 -7.042969 L 3.132812 -7.042969 C 2.390625 -5.847656 1.28125 -4.765625 0.113281 -4.152344 C 0.328125 -3.785156 0.667969 -2.765625 0.765625 -2.238281 C 1.195312 -2.503906 1.621094 -2.816406 2.039062 -3.183594 L 2.039062 1.183594 L 3.824219 1.183594 L 3.824219 -3.421875 C 4.089844 -3.070312 4.351562 -2.71875 4.527344 -2.425781 Z M 9.683594 -0.957031 L 9.683594 -5.320312 L 11.925781 -5.320312 L 11.925781 -7.082031 L 9.683594 -7.082031 L 9.683594 -10.617188 L 7.796875 -10.617188 L 7.796875 -7.082031 L 5.457031 -7.082031 L 5.457031 -5.320312 L 7.796875 -5.320312 L 7.796875 -0.957031 L 4.929688 -0.957031 L 4.929688 0.84375 L 12.238281 0.84375 L 12.238281 -0.957031 Z M 9.683594 -0.957031 "/></g></g></g><g fill="#ffffff" fill-opacity="1"><g transform="translate(87.788396, 25.133101)"><g><path d="M 2.71875 -0.90625 L 2.71875 -8.527344 L 11.75 -8.527344 L 11.75 -10.277344 L 0.929688 -10.277344 L 0.929688 0.84375 L 12.101562 0.84375 L 12.101562 -0.90625 Z M 11.09375 -2.667969 C 10.476562 -3.308594 9.570312 -4.074219 8.578125 -4.867188 C 9.359375 -5.699219 10.074219 -6.605469 10.667969 -7.546875 L 8.941406 -8.25 C 8.464844 -7.445312 7.863281 -6.667969 7.183594 -5.949219 C 6.265625 -6.652344 5.359375 -7.320312 4.589844 -7.886719 L 3.332031 -6.78125 C 4.113281 -6.175781 5.007812 -5.457031 5.886719 -4.742188 C 4.917969 -3.910156 3.835938 -3.207031 2.742188 -2.679688 C 3.144531 -2.351562 3.835938 -1.648438 4.136719 -1.269531 C 5.183594 -1.886719 6.265625 -2.667969 7.269531 -3.585938 C 8.238281 -2.742188 9.105469 -1.9375 9.671875 -1.296875 Z M 11.09375 -2.667969 "/></g></g></g><g fill="#ffffff" fill-opacity="1"><g transform="translate(38.001415, 32.033717)"><g><path d="M 1.953125 0.0664062 C 2.425781 0.0664062 2.828125 -0.113281 3.136719 -0.46875 L 2.679688 -1.011719 C 2.507812 -0.828125 2.277344 -0.683594 1.988281 -0.683594 C 1.476562 -0.683594 1.144531 -1.101562 1.144531 -1.820312 C 1.144531 -2.527344 1.527344 -2.945312 1.996094 -2.945312 C 2.253906 -2.945312 2.445312 -2.828125 2.628906 -2.664062 L 3.082031 -3.21875 C 2.835938 -3.472656 2.453125 -3.691406 1.980469 -3.691406 C 1.0625 -3.691406 0.253906 -3 0.253906 -1.792969 C 0.253906 -0.566406 1.03125 0.0664062 1.953125 0.0664062 Z M 1.953125 0.0664062 "/></g></g></g><g fill="#ffffff" fill-opacity="1"><g transform="translate(41.249517, 32.033717)"><g><path d="M 1.140625 0.0664062 C 1.335938 0.0664062 1.476562 0.0351562 1.566406 -0.00390625 L 1.464844 -0.644531 C 1.417969 -0.632812 1.398438 -0.632812 1.367188 -0.632812 C 1.300781 -0.632812 1.21875 -0.6875 1.21875 -0.871094 L 1.21875 -3.890625 L 0.351562 -3.890625 L 0.351562 -0.902344 C 0.351562 -0.320312 0.546875 0.0664062 1.140625 0.0664062 Z M 1.140625 0.0664062 "/></g></g></g><g fill="#ffffff" fill-opacity="1"><g transform="translate(42.866261, 32.033717)"><g><path d="M 1.554688 0.0664062 C 2.253906 0.0664062 2.90625 -0.46875 2.90625 -1.386719 C 2.90625 -2.304688 2.253906 -2.839844 1.554688 -2.839844 C 0.847656 -2.839844 0.195312 -2.304688 0.195312 -1.386719 C 0.195312 -0.46875 0.847656 0.0664062 1.554688 0.0664062 Z M 1.554688 -0.632812 C 1.226562 -0.632812 1.082031 -0.925781 1.082031 -1.386719 C 1.082031 -1.84375 1.226562 -2.136719 1.554688 -2.136719 C 1.875 -2.136719 2.019531 -1.84375 2.019531 -1.386719 C 2.019531 -0.925781 1.875 -0.632812 1.554688 -0.632812 Z M 1.554688 -0.632812 "/></g></g></g><g fill="#ffffff" fill-opacity="1"><g transform="translate(45.968272, 32.033717)"><g><path d="M 1.1875 0.0664062 C 1.5625 0.0664062 1.820312 -0.105469 2.050781 -0.378906 L 2.070312 -0.378906 L 2.132812 0 L 2.839844 0 L 2.839844 -2.769531 L 1.972656 -2.769531 L 1.972656 -0.953125 C 1.824219 -0.75 1.703125 -0.671875 1.507812 -0.671875 C 1.289062 -0.671875 1.1875 -0.785156 1.1875 -1.164062 L 1.1875 -2.769531 L 0.320312 -2.769531 L 0.320312 -1.058594 C 0.320312 -0.363281 0.578125 0.0664062 1.1875 0.0664062 Z M 1.1875 0.0664062 "/></g></g></g><g fill="#ffffff" fill-opacity="1"><g transform="translate(49.153066, 32.033717)"><g><path d="M 1.34375 0.0664062 C 1.605469 0.0664062 1.875 -0.0742188 2.070312 -0.269531 L 2.089844 -0.269531 L 2.152344 0 L 2.859375 0 L 2.859375 -3.890625 L 1.992188 -3.890625 L 1.992188 -2.964844 L 2.019531 -2.550781 C 1.839844 -2.726562 1.660156 -2.839844 1.355469 -2.839844 C 0.777344 -2.839844 0.210938 -2.292969 0.210938 -1.386719 C 0.210938 -0.480469 0.652344 0.0664062 1.34375 0.0664062 Z M 1.574219 -0.644531 C 1.277344 -0.644531 1.101562 -0.867188 1.101562 -1.398438 C 1.101562 -1.910156 1.320312 -2.132812 1.558594 -2.132812 C 1.703125 -2.132812 1.859375 -2.089844 1.992188 -1.96875 L 1.992188 -0.875 C 1.871094 -0.695312 1.738281 -0.644531 1.574219 -0.644531 Z M 1.574219 -0.644531 "/></g></g></g><g fill="#ffffff" fill-opacity="1"><g transform="translate(52.35734, 32.033717)"><g/></g></g><g fill="#ffffff" fill-opacity="1"><g transform="translate(53.472504, 32.033717)"><g><path d="M 0.417969 0 L 1.246094 0 L 1.246094 -1.203125 C 1.246094 -1.640625 1.171875 -2.136719 1.132812 -2.542969 L 1.160156 -2.542969 L 1.515625 -1.75 L 2.410156 0 L 3.296875 0 L 3.296875 -3.628906 L 2.46875 -3.628906 L 2.46875 -2.425781 C 2.46875 -1.992188 2.542969 -1.46875 2.585938 -1.085938 L 2.5625 -1.085938 L 2.207031 -1.890625 L 1.304688 -3.628906 L 0.417969 -3.628906 Z M 0.417969 0 "/></g></g></g><g fill="#ffffff" fill-opacity="1"><g transform="translate(57.192965, 32.033717)"><g><path d="M 1.050781 0.0664062 C 1.359375 0.0664062 1.617188 -0.0742188 1.84375 -0.277344 L 1.871094 -0.277344 L 1.929688 0 L 2.632812 0 L 2.632812 -1.574219 C 2.632812 -2.441406 2.230469 -2.839844 1.515625 -2.839844 C 1.082031 -2.839844 0.6875 -2.691406 0.320312 -2.472656 L 0.625 -1.902344 C 0.902344 -2.058594 1.128906 -2.148438 1.347656 -2.148438 C 1.632812 -2.148438 1.75 -2.015625 1.769531 -1.792969 C 0.6875 -1.675781 0.230469 -1.359375 0.230469 -0.773438 C 0.230469 -0.3125 0.539062 0.0664062 1.050781 0.0664062 Z M 1.347656 -0.605469 C 1.167969 -0.605469 1.050781 -0.683594 1.050781 -0.84375 C 1.050781 -1.039062 1.226562 -1.199219 1.769531 -1.265625 L 1.769531 -0.824219 C 1.640625 -0.6875 1.523438 -0.605469 1.347656 -0.605469 Z M 1.347656 -0.605469 "/></g></g></g><g fill="#ffffff" fill-opacity="1"><g transform="translate(60.144012, 32.033717)"><g><path d="M 1.441406 0.0664062 C 1.722656 0.0664062 1.921875 0.0078125 2.070312 -0.0351562 L 1.933594 -0.664062 C 1.863281 -0.636719 1.769531 -0.609375 1.679688 -0.609375 C 1.476562 -0.609375 1.328125 -0.730469 1.328125 -1.039062 L 1.328125 -2.09375 L 1.980469 -2.09375 L 1.980469 -2.769531 L 1.328125 -2.769531 L 1.328125 -3.507812 L 0.613281 -3.507812 L 0.515625 -2.769531 L 0.0859375 -2.738281 L 0.0859375 -2.09375 L 0.460938 -2.09375 L 0.460938 -1.027344 C 0.460938 -0.375 0.746094 0.0664062 1.441406 0.0664062 Z M 1.441406 0.0664062 "/></g></g></g><g fill="#ffffff" fill-opacity="1"><g transform="translate(62.311038, 32.033717)"><g><path d="M 0.351562 0 L 1.21875 0 L 1.21875 -2.769531 L 0.351562 -2.769531 Z M 0.785156 -3.15625 C 1.070312 -3.15625 1.265625 -3.332031 1.265625 -3.605469 C 1.265625 -3.871094 1.070312 -4.046875 0.785156 -4.046875 C 0.492188 -4.046875 0.300781 -3.871094 0.300781 -3.605469 C 0.300781 -3.332031 0.492188 -3.15625 0.785156 -3.15625 Z M 0.785156 -3.15625 "/></g></g></g><g fill="#ffffff" fill-opacity="1"><g transform="translate(63.874214, 32.033717)"><g><path d="M 0.988281 0 L 1.992188 0 L 2.886719 -2.769531 L 2.054688 -2.769531 L 1.714844 -1.496094 C 1.644531 -1.222656 1.578125 -0.933594 1.507812 -0.644531 L 1.484375 -0.644531 C 1.414062 -0.933594 1.347656 -1.222656 1.277344 -1.496094 L 0.941406 -2.769531 L 0.0664062 -2.769531 Z M 0.988281 0 "/></g></g></g><g fill="#ffffff" fill-opacity="1"><g transform="translate(66.830134, 32.033717)"><g><path d="M 1.605469 0.0664062 C 1.929688 0.0664062 2.308594 -0.0429688 2.59375 -0.25 L 2.308594 -0.769531 C 2.109375 -0.652344 1.921875 -0.59375 1.722656 -0.59375 C 1.375 -0.59375 1.109375 -0.75 1.03125 -1.128906 L 2.660156 -1.128906 C 2.679688 -1.199219 2.699219 -1.347656 2.699219 -1.503906 C 2.699219 -2.257812 2.308594 -2.839844 1.507812 -2.839844 C 0.84375 -2.839844 0.195312 -2.285156 0.195312 -1.386719 C 0.195312 -0.46875 0.808594 0.0664062 1.605469 0.0664062 Z M 1.019531 -1.699219 C 1.078125 -2.027344 1.285156 -2.175781 1.523438 -2.175781 C 1.839844 -2.175781 1.960938 -1.972656 1.960938 -1.699219 Z M 1.019531 -1.699219 "/></g></g></g><g fill="#ffffff" fill-opacity="1"><g transform="translate(69.732487, 32.033717)"><g/></g></g><g fill="#ffffff" fill-opacity="1"><g transform="translate(70.847651, 32.033717)"><g><path d="M 1.953125 0.0664062 C 2.425781 0.0664062 2.828125 -0.113281 3.136719 -0.46875 L 2.679688 -1.011719 C 2.507812 -0.828125 2.277344 -0.683594 1.988281 -0.683594 C 1.476562 -0.683594 1.144531 -1.101562 1.144531 -1.820312 C 1.144531 -2.527344 1.527344 -2.945312 1.996094 -2.945312 C 2.253906 -2.945312 2.445312 -2.828125 2.628906 -2.664062 L 3.082031 -3.21875 C 2.835938 -3.472656 2.453125 -3.691406 1.980469 -3.691406 C 1.0625 -3.691406 0.253906 -3 0.253906 -1.792969 C 0.253906 -0.566406 1.03125 0.0664062 1.953125 0.0664062 Z M 1.953125 0.0664062 "/></g></g></g><g fill="#ffffff" fill-opacity="1"><g transform="translate(74.095752, 32.033717)"><g><path d="M 1.554688 0.0664062 C 2.253906 0.0664062 2.90625 -0.46875 2.90625 -1.386719 C 2.90625 -2.304688 2.253906 -2.839844 1.554688 -2.839844 C 0.847656 -2.839844 0.195312 -2.304688 0.195312 -1.386719 C 0.195312 -0.46875 0.847656 0.0664062 1.554688 0.0664062 Z M 1.554688 -0.632812 C 1.226562 -0.632812 1.082031 -0.925781 1.082031 -1.386719 C 1.082031 -1.84375 1.226562 -2.136719 1.554688 -2.136719 C 1.875 -2.136719 2.019531 -1.84375 2.019531 -1.386719 C 2.019531 -0.925781 1.875 -0.632812 1.554688 -0.632812 Z M 1.554688 -0.632812 "/></g></g></g><g fill="#ffffff" fill-opacity="1"><g transform="translate(77.197763, 32.033717)"><g><path d="M 0.351562 0 L 1.21875 0 L 1.21875 -1.851562 C 1.378906 -2.019531 1.527344 -2.097656 1.65625 -2.097656 C 1.875 -2.097656 1.976562 -1.992188 1.976562 -1.605469 L 1.976562 0 L 2.84375 0 L 2.84375 -1.851562 C 3.007812 -2.019531 3.160156 -2.097656 3.285156 -2.097656 C 3.507812 -2.097656 3.605469 -1.992188 3.605469 -1.605469 L 3.605469 0 L 4.46875 0 L 4.46875 -1.714844 C 4.46875 -2.40625 4.207031 -2.839844 3.605469 -2.839844 C 3.234375 -2.839844 2.976562 -2.625 2.738281 -2.382812 C 2.59375 -2.679688 2.363281 -2.839844 1.976562 -2.839844 C 1.601562 -2.839844 1.363281 -2.648438 1.132812 -2.421875 L 1.121094 -2.421875 L 1.058594 -2.769531 L 0.351562 -2.769531 Z M 0.351562 0 "/></g></g></g><g fill="#ffffff" fill-opacity="1"><g transform="translate(81.994434, 32.033717)"><g><path d="M 0.351562 0 L 1.21875 0 L 1.21875 -1.851562 C 1.378906 -2.019531 1.527344 -2.097656 1.65625 -2.097656 C 1.875 -2.097656 1.976562 -1.992188 1.976562 -1.605469 L 1.976562 0 L 2.84375 0 L 2.84375 -1.851562 C 3.007812 -2.019531 3.160156 -2.097656 3.285156 -2.097656 C 3.507812 -2.097656 3.605469 -1.992188 3.605469 -1.605469 L 3.605469 0 L 4.46875 0 L 4.46875 -1.714844 C 4.46875 -2.40625 4.207031 -2.839844 3.605469 -2.839844 C 3.234375 -2.839844 2.976562 -2.625 2.738281 -2.382812 C 2.59375 -2.679688 2.363281 -2.839844 1.976562 -2.839844 C 1.601562 -2.839844 1.363281 -2.648438 1.132812 -2.421875 L 1.121094 -2.421875 L 1.058594 -2.769531 L 0.351562 -2.769531 Z M 0.351562 0 "/></g></g></g><g fill="#ffffff" fill-opacity="1"><g transform="translate(86.791105, 32.033717)"><g><path d="M 1.1875 0.0664062 C 1.5625 0.0664062 1.820312 -0.105469 2.050781 -0.378906 L 2.070312 -0.378906 L 2.132812 0 L 2.839844 0 L 2.839844 -2.769531 L 1.972656 -2.769531 L 1.972656 -0.953125 C 1.824219 -0.75 1.703125 -0.671875 1.507812 -0.671875 C 1.289062 -0.671875 1.1875 -0.785156 1.1875 -1.164062 L 1.1875 -2.769531 L 0.320312 -2.769531 L 0.320312 -1.058594 C 0.320312 -0.363281 0.578125 0.0664062 1.1875 0.0664062 Z M 1.1875 0.0664062 "/></g></g></g><g fill="#ffffff" fill-opacity="1"><g transform="translate(89.975898, 32.033717)"><g><path d="M 0.351562 0 L 1.21875 0 L 1.21875 -1.851562 C 1.382812 -2.011719 1.5 -2.097656 1.695312 -2.097656 C 1.914062 -2.097656 2.015625 -1.992188 2.015625 -1.605469 L 2.015625 0 L 2.882812 0 L 2.882812 -1.714844 C 2.882812 -2.40625 2.625 -2.839844 2.019531 -2.839844 C 1.644531 -2.839844 1.363281 -2.648438 1.132812 -2.425781 L 1.121094 -2.425781 L 1.058594 -2.769531 L 0.351562 -2.769531 Z M 0.351562 0 "/></g></g></g><g fill="#ffffff" fill-opacity="1"><g transform="translate(93.180172, 32.033717)"><g><path d="M 0.351562 0 L 1.21875 0 L 1.21875 -2.769531 L 0.351562 -2.769531 Z M 0.785156 -3.15625 C 1.070312 -3.15625 1.265625 -3.332031 1.265625 -3.605469 C 1.265625 -3.871094 1.070312 -4.046875 0.785156 -4.046875 C 0.492188 -4.046875 0.300781 -3.871094 0.300781 -3.605469 C 0.300781 -3.332031 0.492188 -3.15625 0.785156 -3.15625 Z M 0.785156 -3.15625 "/></g></g></g><g fill="#ffffff" fill-opacity="1"><g transform="translate(94.743348, 32.033717)"><g><path d="M 1.441406 0.0664062 C 1.722656 0.0664062 1.921875 0.0078125 2.070312 -0.0351562 L 1.933594 -0.664062 C 1.863281 -0.636719 1.769531 -0.609375 1.679688 -0.609375 C 1.476562 -0.609375 1.328125 -0.730469 1.328125 -1.039062 L 1.328125 -2.09375 L 1.980469 -2.09375 L 1.980469 -2.769531 L 1.328125 -2.769531 L 1.328125 -3.507812 L 0.613281 -3.507812 L 0.515625 -2.769531 L 0.0859375 -2.738281 L 0.0859375 -2.09375 L 0.460938 -2.09375 L 0.460938 -1.027344 C 0.460938 -0.375 0.746094 0.0664062 1.441406 0.0664062 Z M 1.441406 0.0664062 "/></g></g></g><g fill="#ffffff" fill-opacity="1"><g transform="translate(96.910374, 32.033717)"><g><path d="M 0.695312 1.066406 C 1.355469 1.066406 1.65625 0.714844 1.921875 0.00390625 L 2.878906 -2.769531 L 2.050781 -2.769531 L 1.730469 -1.621094 C 1.664062 -1.359375 1.601562 -1.101562 1.546875 -0.835938 L 1.523438 -0.835938 C 1.449219 -1.109375 1.394531 -1.367188 1.308594 -1.621094 L 0.941406 -2.769531 L 0.0664062 -2.769531 L 1.128906 -0.0820312 L 1.089844 0.0585938 C 1.027344 0.253906 0.890625 0.390625 0.628906 0.390625 C 0.566406 0.390625 0.492188 0.363281 0.441406 0.355469 L 0.289062 1.011719 C 0.402344 1.046875 0.515625 1.066406 0.695312 1.066406 Z M 0.695312 1.066406 "/></g></g></g><g clip-path="url(#id1)"><path fill="#ffffff" d="M 18.355469 12.234375 C 22.691406 12.234375 26.265625 15.828125 26.761719 20.457031 C 29.773438 20.457031 32.210938 23.144531 32.210938 26.460938 C 32.210938 29.773438 29.773438 32.460938 26.761719 32.460938 L 9.945312 32.460938 C 6.9375 32.460938 4.496094 29.773438 4.496094 26.460938 C 4.496094 23.144531 6.9375 20.457031 9.945312 20.457031 C 10.441406 15.828125 14.019531 12.234375 18.355469 12.234375 Z M 18.375 18.34375 C 18.210938 18.34375 18.019531 18.367188 17.855469 18.53125 L 11.808594 23.71875 C 11.644531 23.882812 11.574219 24.066406 11.574219 24.277344 C 11.574219 24.695312 11.902344 25.023438 12.328125 25.023438 L 13.085938 25.023438 L 13.085938 28.746094 C 13.085938 29.566406 13.761719 30.234375 14.59375 30.234375 L 22.152344 30.234375 C 22.988281 30.234375 23.664062 29.566406 23.660156 28.738281 L 23.644531 25.023438 L 24.398438 25.023438 C 24.800781 25.023438 25.15625 24.695312 25.15625 24.277344 C 25.179688 24.066406 25.082031 23.882812 24.894531 23.71875 L 18.871094 18.507812 C 18.730469 18.390625 18.539062 18.34375 18.375 18.34375 Z M 19.121094 25.773438 C 20.164062 25.773438 21.007812 26.605469 21.007812 27.632812 C 21.007812 27.835938 20.835938 28.003906 20.628906 28.003906 L 16.101562 28.003906 C 15.894531 28.003906 15.722656 27.835938 15.722656 27.632812 C 15.722656 26.605469 16.566406 25.773438 17.609375 25.773438 Z M 18.367188 22.058594 C 19.199219 22.058594 19.875 22.726562 19.875 23.546875 C 19.875 24.363281 19.199219 25.03125 18.367188 25.03125 C 17.53125 25.03125 16.855469 24.363281 16.855469 23.546875 C 16.855469 22.726562 17.53125 22.058594 18.367188 22.058594 Z M 18.367188 22.058594 " fill-opacity="1" fill-rule="nonzero"/></g></svg>